<svg width="40" height="26" viewBox="0 0 40 26" fill="none" xmlns="http://www.w3.org/2000/svg">
<path fill-rule="evenodd" clip-rule="evenodd" d="M39.25 13C39.25 12.6354 39.1052 12.2856 38.8473 12.0278C38.5894 11.7699 38.2397 11.625 37.875 11.625H5.44427L14.0985 2.97353C14.2264 2.84569 14.3278 2.69392 14.397 2.52688C14.4661 2.35985 14.5018 2.18082 14.5018 2.00003C14.5018 1.81923 14.4661 1.64021 14.397 1.47317C14.3278 1.30614 14.2264 1.15437 14.0985 1.02653C13.9707 0.898686 13.8189 0.797276 13.6519 0.728089C13.4848 0.658901 13.3058 0.623291 13.125 0.623291C12.9442 0.623291 12.7652 0.658901 12.5982 0.728089C12.4311 0.797276 12.2794 0.898686 12.1515 1.02653L1.15152 12.0265C1.02347 12.1543 0.921875 12.306 0.852557 12.473C0.783239 12.6401 0.747559 12.8192 0.747559 13C0.747559 13.1809 0.783239 13.36 0.852557 13.527C0.921875 13.6941 1.02347 13.8458 1.15152 13.9735L12.1515 24.9735C12.2794 25.1014 12.4311 25.2028 12.5982 25.272C12.7652 25.3412 12.9442 25.3768 13.125 25.3768C13.3058 25.3768 13.4848 25.3412 13.6519 25.272C13.8189 25.2028 13.9707 25.1014 14.0985 24.9735C14.2264 24.8457 14.3278 24.6939 14.397 24.5269C14.4661 24.3598 14.5018 24.1808 14.5018 24C14.5018 23.8192 14.4661 23.6402 14.397 23.4732C14.3278 23.3061 14.2264 23.1544 14.0985 23.0265L5.44427 14.375H37.875C38.2397 14.375 38.5894 14.2302 38.8473 13.9723C39.1052 13.7144 39.25 13.3647 39.25 13Z" fill="white"/>
</svg>
