<svg width="40" height="40" viewBox="0 0 40 40" fill="none" xmlns="http://www.w3.org/2000/svg">
<g clip-path="url(#clip0_10_194)">
<path d="M34.9424 23.8116L34.9139 23.4202C34.4557 17.4552 31.6783 13.7159 29.2281 10.4177C26.9593 7.36358 24.9997 4.72618 24.9997 0.834679C24.9997 0.522191 24.8248 0.236577 24.5473 0.0933006C24.2689 -0.0507565 23.9345 -0.0271637 23.6814 0.156814C20.0016 2.79015 16.9312 7.2285 15.8587 11.4633C15.1141 14.4117 15.0156 17.7262 15.0018 19.9152C11.6034 19.1893 10.8336 14.1057 10.8255 14.0504C10.7872 13.7867 10.6261 13.5572 10.3918 13.4319C10.155 13.3082 9.87664 13.2992 9.63657 13.418C9.45837 13.5043 5.26251 15.6364 5.01838 24.1501C5.00127 24.4333 5.00049 24.7164 5.00049 25.0004C5.00049 33.2708 11.7295 39.9999 19.9999 39.9999C28.2703 39.9999 34.9994 33.2708 34.9994 25.0004C34.9994 24.5854 34.9709 24.1981 34.9424 23.8116ZM19.9999 38.3333C17.2428 38.3333 15.0001 35.9441 15.0001 33.0072C15.0001 32.9071 14.9993 32.8061 15.0066 32.6825C15.04 31.4439 15.2752 30.5984 15.5331 30.0361C16.0166 31.0745 16.8815 32.029 18.2845 32.029C18.7451 32.029 19.1179 31.6563 19.1179 31.1957C19.1179 30.0091 19.1423 28.6404 19.4377 27.4051C19.7006 26.309 20.3287 25.1444 21.1247 24.2102C21.4786 25.4228 22.1688 26.4041 22.8426 27.362C23.8069 28.7324 24.8037 30.1491 24.9787 32.5652C24.9893 32.7084 24.9999 32.8525 24.9999 33.0071C24.9997 35.9441 22.757 38.3333 19.9999 38.3333ZM25.2663 37.2445C26.1313 36.0649 26.6664 34.6069 26.6664 33.0072C26.6664 32.8111 26.6542 32.6287 26.6298 32.2878C26.432 29.5674 25.2496 27.8861 24.2056 26.4026C23.3161 25.1396 22.5487 24.0484 22.5487 22.5006C22.5487 22.184 22.3697 21.8951 22.0865 21.7544C21.8049 21.6127 21.4648 21.6445 21.2133 21.8358C19.6151 23.0434 18.2821 25.0762 17.8167 27.0171C17.579 28.0123 17.496 29.0889 17.4667 29.9743C16.889 29.3526 16.7099 28.2003 16.7083 28.1848C16.6709 27.9171 16.5065 27.6835 16.2665 27.5591C16.028 27.4354 15.7424 27.4321 15.5024 27.5558C15.2924 27.6632 13.4476 28.7211 13.3418 32.6126C13.3345 32.7444 13.3337 32.8762 13.3337 33.0072C13.3337 34.6069 13.8688 36.065 14.7338 37.2446C9.9946 35.1982 6.6673 30.4821 6.6673 25.0006C6.6673 24.7507 6.66652 24.5018 6.68355 24.2242C6.82675 19.2292 8.42505 16.7521 9.46829 15.6593C10.1958 18.2633 12.1016 21.6673 15.8336 21.6673C16.2942 21.6673 16.6669 21.2946 16.6669 20.834C16.6669 18.0452 16.7296 14.8227 17.475 11.8719C18.3213 8.52892 20.6398 4.91906 23.4383 2.47532C23.903 6.04456 25.8471 8.66165 27.8905 11.4113C30.3196 14.681 32.8309 18.0622 33.2516 23.5374L33.2801 23.9361C33.3062 24.2828 33.333 24.6286 33.333 25.0005C33.3328 30.482 30.0055 35.1981 25.2663 37.2445Z" fill="black"/>
</g>
<defs>
<clipPath id="clip0_10_194">
<rect width="40" height="40" fill="white"/>
</clipPath>
</defs>
</svg>
