<?xml version="1.0" encoding="utf-8"?><svg viewBox="0 0 502.66 502.66" xmlns="http://www.w3.org/2000/svg" xmlns:xlink="http://www.w3.org/1999/xlink"><style>:root>svg{display:none}:root>svg:target{display:block}</style><svg viewBox="0 0 40 26" id="arrow-next" xmlns="http://www.w3.org/2000/svg"><path fill-rule="evenodd" clip-rule="evenodd" d="M.75 13a1.375 1.375 0 001.375 1.375h32.43l-8.654 8.651a1.376 1.376 0 101.948 1.948l11-11a1.377 1.377 0 000-1.947l-11-11A1.377 1.377 0 0025.9 2.972l8.655 8.652H2.125A1.375 1.375 0 00.75 13z"/></svg><svg viewBox="0 0 40 26" id="arrow-prev" xmlns="http://www.w3.org/2000/svg"><path fill-rule="evenodd" clip-rule="evenodd" d="M39.25 13a1.375 1.375 0 00-1.375-1.375H5.445l8.653-8.651a1.376 1.376 0 10-1.947-1.947l-11 11a1.376 1.376 0 000 1.947l11 11a1.376 1.376 0 101.947-1.948l-8.654-8.651h32.431A1.375 1.375 0 0039.25 13z"/></svg><svg viewBox="0 0 40 40" id="bact" xmlns="http://www.w3.org/2000/svg"><path d="M38.042 13.534c-2-1.717-1.95-1.667-2.042-1.734a2.241 2.241 0 00-2.733.342.592.592 0 01-.642.108 5.608 5.608 0 00-1.317-2.875l.525-.266a2.734 2.734 0 001.5-2.442 1.066 1.066 0 01.592-.958l1.308-.65a.835.835 0 00-.75-1.492c-1.275.6-2.816 1.133-2.816 3.1 0 .833-.584.95-1.742 1.533a5.483 5.483 0 00-2.192-.833.55.55 0 01.109-.642 2.242 2.242 0 00.258-2.85L26.433 1.95a.832.832 0 10-1.266 1.084l1.591 1.858c.35.742-.908.833-.741 2.5a5.541 5.541 0 00-2.85 1.233 3.117 3.117 0 00-1.5-1.666c-1.159-.575-.709-1.742-.492-2.8a.85.85 0 00-1.667-.325l-.25 1.275a3.067 3.067 0 001.667 3.333 1.426 1.426 0 01.708.833l.217.659-2.275 2.275c-1.242-2.309-2.908-.934-3.7-3.217a.835.835 0 00-1.583.525c1.15 3.45 3.333 1.833 4.008 3.775.058.167.333-.175-2.625 2.783-.658.659-.425.65-.625.584a1.4 1.4 0 01-.833-.709 3.067 3.067 0 00-3.334-1.666l-1.275.25a.85.85 0 00.325 1.666c1.092-.216 2.234-.641 2.8.5a3.075 3.075 0 001.6 1.459 5.291 5.291 0 00-.316 1.233 2.425 2.425 0 00-1.8.625c-.409.408-.675.1-2.709-1.117a.834.834 0 00-.833 1.425l2.008 1.209a2.242 2.242 0 002.734-.342.59.59 0 01.641-.108c.109.812.393 1.591.834 2.283a2.724 2.724 0 00-1.559 2.467 1.067 1.067 0 01-.591.958l-1.325.708a.835.835 0 00.75 1.492C13.458 28.334 15 27.8 15 25.834c0-.667.425-.875 1.058-1.192a5.91 5.91 0 002.875 1.3.567.567 0 01-.108.642 2.233 2.233 0 00-.333 2.733l1.2 2.008a.833.833 0 001.425-.833l-1.2-2c-.442-.742.891-.833.716-2.5a4.81 4.81 0 001.225-.308 3.108 3.108 0 001.475 1.575c1.892.941-.558 3.433 1.15 3.775a.834.834 0 00.984-.65l.25-1.275a3.067 3.067 0 00-1.667-3.334 1.434 1.434 0 01-.742-.916c.4-.275.375-.284 3.284-3.192 2.116.708.45 2.9 3.891 4.05a.836.836 0 001.055-.53.834.834 0 00-.53-1.053c-2.325-.775-.833-2.392-3.158-3.725l2.275-2.275c.833.291 1.192.35 1.475.925a3.066 3.066 0 002.742 1.666 9.405 9.405 0 001.875-.308.85.85 0 00-.325-1.667c-1.075.209-2.225.65-2.8-.5a3.117 3.117 0 00-1.667-1.5 5.76 5.76 0 001.242-2.866c1.616.15 1.741-1.067 2.458-.725C37.108 14.925 37.092 15 37.5 15a.833.833 0 00.542-1.466zm-20.542 7.3a.834.834 0 110-1.668.834.834 0 010 1.668zm5 0a.834.834 0 110-1.668.834.834 0 010 1.668zm0-5.834a.833.833 0 110-1.666.833.833 0 010 1.666zm5-.833a1.667 1.667 0 110-3.334 1.667 1.667 0 010 3.334zM10.042 35.525a1.667 1.667 0 00-.084-1.092l.567-.45a.835.835 0 10-1.05-1.3l-.608.492-.434-.433.492-.484a.837.837 0 10-1.183-1.183l-.484.492-.433-.434.492-.608a.836.836 0 10-1.3-1.05l-.45.567A1.666 1.666 0 004.475 30l-.55-.55a.837.837 0 00-1.183 1.183l.55.55c-.096.363-.067.748.083 1.092l-.567.45a.833.833 0 00.525 1.442c.35 0 .459-.134 1.134-.675l.433.433-.492.483A.834.834 0 005 35.833c.417 0 .558-.208 1.075-.733l.433.433-.491.609a.833.833 0 00.65 1.358c.475 0 .616-.267 1.1-.833.344.15.728.179 1.091.083l.55.55a.837.837 0 001.184-1.183l-.55-.592zM34.167 35a1.667 1.667 0 100-3.333 1.667 1.667 0 000 3.333zm-10 4.167a1.667 1.667 0 100-3.333 1.667 1.667 0 000 3.333zM2.5 17.5a1.667 1.667 0 100-3.333 1.667 1.667 0 000 3.333zm0-11.667c1.2 0 .933-.083 1.083.242l-.7.692A.837.837 0 104.066 7.95c.834-.833.609-.716.934-.6v.984a.833.833 0 001.667 0V7.35c.333-.116.1-.241.933.6a.837.837 0 101.183-1.183l-.7-.692c.15-.325-.117-.242 1.083-.242a.833.833 0 100-1.666c-1.2 0-.933.083-1.083-.242l.7-.692A.837.837 0 007.6 2.05l-.692.7c-.325-.15-.242.117-.242-1.083a.833.833 0 10-1.666 0c0 1.2.083.933-.242 1.083l-.692-.7a.837.837 0 10-1.183 1.183l.7.692c-.15.325.117.242-1.083.242a.833.833 0 100 1.667z"/></svg><svg viewBox="0 0 40 40" id="chem" xmlns="http://www.w3.org/2000/svg"><path d="M29.563 25.983c-.013.004-.03.004-.043.004-1.05 0-1.603-.264-2.09-.497-.44-.21-.82-.393-1.63-.393-.81 0-1.19.183-1.63.393-.487.233-1.04.497-2.09.497-1.05 0-1.603-.264-2.09-.497-.44-.21-.82-.393-1.63-.393-.81 0-1.19.183-1.63.393-.487.233-1.04.497-2.09.497-1.05 0-1.603-.264-2.09-.497-.413-.197-.77-.37-1.48-.39l-6.173 8.587a2.098 2.098 0 00-.167 2.22 2.1 2.1 0 001.9 1.16h26.733a2.1 2.1 0 001.9-1.16 2.098 2.098 0 00-.166-2.22l-5.534-7.704zM9.14 35.11a1.65 1.65 0 01-1.647-1.647c0-.906.74-1.646 1.647-1.646s1.647.74 1.647 1.646c0 .907-.737 1.647-1.647 1.647zm4.587-2.003a.625.625 0 010-1.247.625.625 0 010 1.247zm-.537-2.45a1.65 1.65 0 01-1.647-1.647c0-.907.74-1.647 1.647-1.647s1.647.74 1.647 1.647c0 .91-.737 1.647-1.647 1.647zm3.293-1.69a.625.625 0 011.247 0 .625.625 0 01-1.247 0zM19.6 35.11a2.141 2.141 0 01-2.137-2.137c0-1.176.96-2.136 2.137-2.136s2.137.96 2.137 2.136c0 1.177-.96 2.137-2.137 2.137zm2.137-6.5a.625.625 0 010-1.247.625.625 0 010 1.247zm3.916 5.787a.625.625 0 010-1.247c.344 0 .624.28.624.623a.627.627 0 01-.624.624zm-.18-3.784a1.65 1.65 0 01-1.646-1.646c0-.907.74-1.647 1.646-1.647.907 0 1.647.74 1.647 1.647 0 .91-.74 1.646-1.647 1.646zm4.94 3.117a1.65 1.65 0 01-1.646-1.647c0-.906.74-1.646 1.646-1.646.907 0 1.647.74 1.647 1.646a1.65 1.65 0 01-1.647 1.647zM14.64 24.916c.81 0 1.19-.183 1.63-.393.487-.233 1.04-.497 2.09-.497 1.05 0 1.603.264 2.09.497.44.21.82.393 1.63.393.81 0 1.19-.183 1.63-.393.487-.233 1.04-.497 2.09-.497 1.05 0 1.603.264 2.09.497.27.13.517.247.857.32l-5.064-7.04a.524.524 0 01-.1-.313V5.203c0-.297.24-.533.534-.533h.646a.361.361 0 00.357-.357V3.29a.361.361 0 00-.357-.357h-9.526a.361.361 0 00-.357.357v1.023c0 .193.163.357.357.357h.646c.297 0 .534.24.534.533v12.29c0 .113-.037.22-.1.313L11.79 24.1c.527.093.89.266 1.22.426.443.21.823.39 1.63.39zm2.933-17.563a.535.535 0 011.067 0v.267a.533.533 0 11-1.067 0v-.267zm0 1.9a.533.533 0 111.067 0v6.097a.533.533 0 11-1.067 0V9.253z"/><circle cx="11" cy="11" r="1"/><circle cx="8.5" cy="8.5" r=".5"/><circle cx="12.5" cy="6.5" r=".5"/><circle cx="31.5" cy="7.5" r=".5"/><circle cx="27" cy="13" r="1"/><circle cx="26" cy="8" r="1"/><circle cx="29.5" cy="10.5" r=".5"/></svg><svg viewBox="0 0 40 40" id="eco" xmlns="http://www.w3.org/2000/svg"><g clip-path="url(#ea)"><path d="M11.644 12.33l9.415 9.415c.214-2.318.65-10.8-3.815-15.265-1.516-1.516-3.52-2.49-5.6-3.108v8.959zM.065 4.065c-.11 1.663-.269 6.617 1.297 10.938h9.64L.065 4.065zM9.3 9.987v-7.17c-3.271-.599-6.339-.49-7.578-.408l7.579 7.578zm4.046 7.36H2.44a10.76 10.76 0 001.696 2.24c3.339 3.34 8.924 3.937 12.499 3.937 1.205 0 2.182-.068 2.767-.122l-6.056-6.055zM37.894 9.3c.598-3.271.49-6.339.407-7.578l-7.578 7.579h7.17zm-12.187 1.702L36.644.066c-1.662-.11-6.616-.269-10.937 1.297v9.64zm2.673.642l-4.941 4.94c.132 1.83.088 3.444.017 4.549 3.47-.193 7.935-1.05 10.774-3.889 1.516-1.516 2.49-3.521 3.108-5.6H28.38zm-5.307 1.992l.29-.29V2.44a10.758 10.758 0 00-2.241 1.696 10.27 10.27 0 00-1.342 1.67c1.001 1.246 1.812 2.74 2.417 4.46.367 1.04.66 2.169.876 3.37zM5.61 31.849h2.97c.508 0 .8.488.8 1.015 0 .45-.253.977-.8.977H5.61v3.925h5.527c.508 0 .8.527.8 1.133 0 .527-.253 1.093-.8 1.093H4.185c-.567 0-1.113-.273-1.113-.8V26.517c0-.527.546-.8 1.113-.8h6.952c.547 0 .8.566.8 1.093 0 .605-.292 1.133-.8 1.133H5.61v3.905zm13.241-4.016c-1.308 0-2.05.722-2.05 2.246v5.448c0 1.524.742 2.246 2.09 2.246 1.776 0 1.933-1.269 1.991-2.09.04-.605.586-.8 1.25-.8.88 0 1.29.254 1.29 1.25 0 2.363-1.934 3.867-4.668 3.867-2.461 0-4.492-1.211-4.492-4.473V30.08c0-3.262 2.05-4.473 4.511-4.473 2.715 0 4.648 1.446 4.648 3.711 0 1.016-.41 1.25-1.27 1.25-.722 0-1.25-.215-1.269-.8-.039-.606-.176-1.934-2.03-1.934zm7.109 7.694V30.08c0-3.262 1.992-4.473 4.57-4.473 2.578 0 4.589 1.211 4.589 4.473v5.448c0 3.262-2.011 4.473-4.59 4.473-2.577 0-4.57-1.211-4.57-4.473zm6.62-5.448c0-1.543-.781-2.246-2.05-2.246-1.29 0-2.032.703-2.032 2.246v5.448c0 1.543.743 2.246 2.032 2.246 1.269 0 2.05-.703 2.05-2.246V30.08z"/></g><defs><clipPath id="ea"><path d="M0 0h40v40H0z"/></clipPath></defs></svg><svg viewBox="0 0 40 40" id="gr" xmlns="http://www.w3.org/2000/svg"><path d="M32.189 13.347a.666.666 0 01-.584-.955A4 4 0 0028 6.667c-1.537 0-1.844.743-2.433.462a.666.666 0 01-.367-.467A6.667 6.667 0 0012 8a.733.733 0 01-.233.533c-.369.314-.557.134-1.1.134a3.333 3.333 0 00-3.134 4.45.667.667 0 01-.683.894 5.318 5.318 0 00-3.517 9.47V22a.666.666 0 111.334 0v15.333a1.333 1.333 0 102.666 0v-14a.667.667 0 111.334 0v1.45c.05.073.084.156.1.243a5.345 5.345 0 001.9 3.13v-3.49a.667.667 0 011.333 0V32a.667.667 0 001.333 0v-4.667a.667.667 0 011.334 0v1.956c.457-.06.905-.177 1.333-.35v-3.606a.667.667 0 111.333 0V36a.667.667 0 001.334 0V24A.667.667 0 0120 24v1.817a4.579 4.579 0 004.667.386V24A.667.667 0 0126 24v11.333a1.333 1.333 0 002.667 0V22A.667.667 0 0130 22v4.35c.433.14.88.234 1.333.281v-1.298a.667.667 0 011.334 0v7.334a.667.667 0 001.333 0v-8a.667.667 0 111.333 0v1.11a6.662 6.662 0 00-3.144-12.43zM18.667 4a4.035 4.035 0 00-4 4.06.667.667 0 11-1.334 0 5.37 5.37 0 015.334-5.393.667.667 0 110 1.333zM7.333 5.333a2 2 0 100-4 2 2 0 000 4zm28.667 2A2.667 2.667 0 1036 2a2.667 2.667 0 000 5.333z"/></svg><svg viewBox="0 0 502.664 502.664" id="icon" xmlns="http://www.w3.org/2000/svg"><path d="M153.821 358.226L0 274.337v-46.463l153.821-83.414v54.574L46.636 250.523l107.185 53.431v54.272zm26.273 29.358L282.103 115.08h32.227L212.084 387.584h-31.99zm168.749-29.358v-54.272l107.164-52.999-107.164-52.59v-53.927l153.821 83.522v46.183l-153.821 84.083z"/></svg><svg viewBox="0 0 40 40" id="privilege1" xmlns="http://www.w3.org/2000/svg"><g clip-path="url(#ha)"><path d="M39.418 2.571l-28.845 8.077c-.555.166-.612.561-.127.877l6.333 4.139c.484.316.441.752-.095.969L1.08 22.926c-.536.216-.515.506.046.643l13.786 3.376c.562.137.614.49.115.783L.252 36.338c-.499.293-.194 1.243.368 1.104l33.113-7.74c.562-.138.645-.539.185-.89l-7.92-6.043c-.46-.351-.406-.834.12-1.073l12.95-5.88c.527-.239.506-.576-.046-.748l-9.944-3.104c-.552-.172-.617-.586-.144-.919L39.752 3.36c.472-.333.22-.955-.334-.789zM33.794 5.69l-8.384 5.908c-.473.333-.408.747.145.92l9.047 2.824c.553.172.574.509.047.748l-11.585 5.26c-.527.239-.581.722-.121 1.073l7.4 5.646c.46.35.377.752-.185.89L6.864 34.706c-.562.139-.614.012-.115-.28l12.428-7.307c.498-.293.447-.646-.115-.783L6.259 23.201c-.562-.137-.583-.427-.046-.643l13.864-5.593c.537-.216.58-.652.095-.968l-6.02-3.934c-.484-.317-.427-.712.127-.878l19.367-5.8c.554-.165.62-.028.148.305z"/><path d="M35.176 20.862c-1.824 0-3.267.957-3.676 2.438-.048.174-.176.635.126 1.033.213.28.558.422 1.025.422h4.838c.666 0 1.005-.279 1.172-.512.22-.307.271-.723.138-1.113-.477-1.399-1.866-2.268-3.623-2.268zm2.228 2.63h-4.376c-.263 0-.2-.156-.16-.23.385-.702 1.245-1.137 2.308-1.137 1.089 0 1.955.445 2.33 1.178.03.06.082.19-.102.19zM4.722 17.574h4.839c.666 0 1.005-.278 1.172-.512.22-.306.27-.722.138-1.112-.477-1.4-1.866-2.268-3.624-2.268-1.823 0-3.266.957-3.675 2.438-.049.174-.176.635.126 1.032.213.28.557.422 1.024.422zm.253-1.553c.4-.667 1.241-1.077 2.272-1.077 1.03 0 1.862.399 2.265 1.063.058.095.172.305-.082.305H5.097c-.263 0-.177-.199-.122-.291z"/></g><defs><clipPath id="ha"><path d="M0 0h40v40H0z"/></clipPath></defs></svg><svg viewBox="0 0 40 40" id="privilege2" xmlns="http://www.w3.org/2000/svg"><g clip-path="url(#ia)"><path d="M34.942 23.812l-.028-.392c-.458-5.965-3.236-9.704-5.686-13.002C26.96 7.364 25 4.726 25 .835a.835.835 0 00-1.32-.678C20 2.79 16.93 7.229 15.858 11.463c-.745 2.949-.843 6.263-.857 8.452-3.399-.726-4.168-5.81-4.177-5.865a.838.838 0 00-.433-.618.83.83 0 00-.755-.014c-.179.086-4.374 2.218-4.619 10.732-.017.283-.018.566-.018.85 0 8.27 6.73 15 15 15s15-6.73 15-15c0-.415-.03-.802-.058-1.188zM20 38.333c-2.757 0-5-2.389-5-5.326 0-.1 0-.2.007-.325.033-1.238.268-2.084.526-2.646.484 1.038 1.348 1.993 2.752 1.993.46 0 .833-.373.833-.833 0-1.187.024-2.556.32-3.79.263-1.097.89-2.262 1.687-3.196.354 1.213 1.044 2.194 1.718 3.152.964 1.37 1.96 2.787 2.136 5.203.01.143.02.288.02.442 0 2.937-2.242 5.326-5 5.326zm5.266-1.088a7.14 7.14 0 001.4-4.238c0-.196-.012-.378-.036-.72-.198-2.72-1.38-4.4-2.424-5.884-.89-1.263-1.657-2.355-1.657-3.902a.833.833 0 00-1.336-.665c-1.598 1.207-2.93 3.24-3.396 5.181-.238.995-.321 2.072-.35 2.957-.578-.621-.757-1.774-.759-1.79a.835.835 0 00-1.206-.628c-.21.107-2.054 1.165-2.16 5.057a7.14 7.14 0 001.392 4.632C9.994 35.198 6.667 30.482 6.667 25c0-.25 0-.5.017-.777.143-4.995 1.741-7.472 2.784-8.565.728 2.604 2.634 6.008 6.366 6.008.46 0 .833-.372.833-.833 0-2.789.063-6.011.808-8.962.846-3.343 3.165-6.953 5.963-9.397.465 3.57 2.41 6.187 4.453 8.936 2.429 3.27 4.94 6.651 5.36 12.126l.03.4c.025.346.052.692.052 1.063 0 5.482-3.327 10.198-8.067 12.245z"/></g><defs><clipPath id="ia"><path d="M0 0h40v40H0z"/></clipPath></defs></svg><svg viewBox="0 0 40 40" id="privilege3" xmlns="http://www.w3.org/2000/svg"><path d="M29.688 18.984a.781.781 0 10-1.563 0 4.693 4.693 0 01-4.688 4.688.781.781 0 100 1.562 6.257 6.257 0 006.25-6.25zM13.411 26.6c-.413.622-4.036 6.153-4.036 8.478 0 2.668 2.147 4.922 4.688 4.922 2.54 0 4.687-2.254 4.687-4.922 0-2.325-3.623-7.856-4.036-8.479a.782.782 0 00-1.303 0zm3.777 8.478c0 1.79-1.46 3.36-3.125 3.36s-3.126-1.57-3.126-3.36c0-1.204 1.716-4.346 3.126-6.602 1.409 2.256 3.124 5.398 3.124 6.602zM5.469 12.969a.781.781 0 00-.643.337C4.332 14.021 0 20.372 0 23.125a5.475 5.475 0 005.469 5.469 5.475 5.475 0 005.468-5.469c0-2.753-4.331-9.104-4.826-9.819a.781.781 0 00-.642-.337zm0 14.062a3.91 3.91 0 01-3.907-3.906c0-1.51 2.185-5.347 3.907-7.974 1.721 2.627 3.906 6.462 3.906 7.974a3.91 3.91 0 01-3.906 3.906zm10.156-8.828a.781.781 0 11-1.562 0 .781.781 0 011.562 0z"/><path d="M24.096.36a.782.782 0 00-1.317 0c-.225.353-5.535 8.697-7.752 14.579a.781.781 0 101.462.551c1.707-4.53 5.438-10.778 6.95-13.236 2.672 4.32 7.811 13.332 7.811 16.73 0 4.308-3.505 7.813-7.812 7.813a7.837 7.837 0 01-7.523-5.696.781.781 0 10-1.504.422c1.13 4.025 4.842 6.836 9.027 6.836 5.169 0 9.375-4.205 9.375-9.375 0-4.306-6.488-15.14-8.717-18.623z"/></svg><svg viewBox="0 0 40 40" id="t3" xmlns="http://www.w3.org/2000/svg"><g clip-path="url(#ka)"><path d="M3.363 24.473a2.4 2.4 0 002.708-.524 9.63 9.63 0 012.618-1.875 5.139 5.139 0 012.204-.6 5.93 5.93 0 011.467-5.6 10.272 10.272 0 00-5.714-2.516 4.485 4.485 0 00-3.708 1.259 7.342 7.342 0 00-1.68 2.589 6.12 6.12 0 00.103 5.321 3.632 3.632 0 002.002 1.946zm13.337.194a4.36 4.36 0 00.666-.047v-9.24a4.667 4.667 0 10-.667 9.287zm-.827-7.893a.667.667 0 11.327 1.293 1.996 1.996 0 000 3.867.667.667 0 01-.327 1.293 3.333 3.333 0 010-6.453zm-1.246-4.787c.369.679.576 1.434.606 2.206A5.96 5.96 0 0116.7 14c.223 0 .445.013.667.04V4.12a5.133 5.133 0 00-3.187.54 3.553 3.553 0 00-1.933 2 2.358 2.358 0 00.506 2.707 9.342 9.342 0 011.874 2.62zm-3.314 21.78a7.528 7.528 0 002.594 1.68 5.487 5.487 0 003.46.4V25.96a5.5 5.5 0 01-.667.04 5.965 5.965 0 01-4.127-1.66 10.209 10.209 0 00-2.506 5.72 4.432 4.432 0 001.246 3.707zm26.634-15.12h-3.84l2.7-2.36a1.35 1.35 0 00-1.774-2.034l-5.026 4.4h-6.614l3.307-5.726 6.32-2.16a1.35 1.35 0 10-.873-2.553l-3.394 1.153 1.92-3.32a1.35 1.35 0 10-2.34-1.347l-1.92 3.32-.693-3.513a1.351 1.351 0 10-2.653.513l1.293 6.553-2.993 5.187v6.473l2.993 5.194-1.293 6.546a1.351 1.351 0 002.006 1.434c.334-.2.57-.532.647-.914l.693-3.513 1.92 3.32a1.35 1.35 0 002.34-1.347l-1.92-3.326 3.394 1.16c.708.23 1.47-.145 1.72-.847a1.362 1.362 0 00-.847-1.713l-6.32-2.154-3.307-5.726h6.614l5.026 4.4a1.34 1.34 0 001.567.153c.123-.078.235-.172.333-.28a1.353 1.353 0 00-.126-1.913l-2.7-2.354h3.84a1.36 1.36 0 00.673-.186 1.349 1.349 0 00-.673-2.52zM20.033 39.333V.667a.667.667 0 10-1.333 0v38.666a.667.667 0 001.333 0z"/></g><defs><clipPath id="ka"><path d="M0 0h40v40H0z"/></clipPath></defs></svg><svg viewBox="0 0 40 40" id="uv2" xmlns="http://www.w3.org/2000/svg"><g clip-path="url(#la)"><path d="M4.681 9.803l-1.416-.818-1.171 2.03 1.413.816a18.31 18.31 0 011.174-2.028zm7.15-6.296l-.816-1.413-2.03 1.172.818 1.416a18.16 18.16 0 012.028-1.175zM20 1.603c.393 0 .783.014 1.172.038V0h-2.344v1.641c.389-.024.78-.038 1.172-.038zm0 2.344C11.148 3.947 3.947 11.148 3.947 20S11.148 36.053 20 36.053 36.053 28.852 36.053 20 28.852 3.947 20 3.947zm0 28.992c-7.135 0-12.94-5.804-12.94-12.94C7.06 12.866 12.866 7.06 20 7.06S32.94 12.865 32.94 20 27.135 32.94 20 32.94zm16.493-21.108l1.413-.816-1.172-2.03-1.416.818c.437.652.828 1.33 1.175 2.028z"/><path d="M20 9.404C14.158 9.404 9.404 14.158 9.404 20c0 5.843 4.754 10.596 10.596 10.596 5.843 0 10.596-4.753 10.596-10.596 0-5.842-4.753-10.596-10.596-10.596zm-.699 11.187a3.53 3.53 0 01-3.525 3.525 3.53 3.53 0 01-3.526-3.525v-4.707h2.344v4.707a1.183 1.183 0 002.363 0v-4.707h2.344v4.707zm5.856 3.249h-1.865l-2.593-4.234v-3.722h2.344v3.062l1.181 1.93 1.182-1.93v-3.062h2.344v3.722l-2.593 4.234zm5.04-19.158l.818-1.416-2.03-1.172-.816 1.413a18.16 18.16 0 012.028 1.175zM1.603 20c0-.393.014-.783.038-1.172H0v2.344h1.641c-.024-.389-.038-.78-.038-1.172zm36.756-1.172c.024.389.038.78.038 1.172 0 .393-.014.783-.038 1.172H40v-2.344h-1.641zm-3.04 11.369l1.416.818 1.172-2.03-1.414-.816a18.229 18.229 0 01-1.174 2.028zm-7.15 6.296l.816 1.413 2.03-1.172-.818-1.416a18.26 18.26 0 01-2.028 1.175zM3.507 28.169l-1.413.816 1.171 2.03 1.416-.818a18.223 18.223 0 01-1.174-2.028zm6.296 7.149l-.818 1.416 2.03 1.172.816-1.413a18.26 18.26 0 01-2.028-1.175zM20 38.397c-.393 0-.783-.014-1.172-.038V40h2.344v-1.641c-.389.024-.78.038-1.172.038z"/></g><defs><clipPath id="la"><path d="M0 0h40v40H0z"/></clipPath></defs></svg></svg>